<?xml version="1.0" encoding="UTF-8" standalone="no"?>
<svg
   viewBox="0 0 1440 1866.6667"
   height="1866.6667"
   width="1440"
   xml:space="preserve"
   id="svg2"
   version="1.1"
   sodipodi:docname="logo-red.svg"
   inkscape:version="1.2.2 (732a01da63, 2022-12-09, custom)"
   xmlns:inkscape="http://www.inkscape.org/namespaces/inkscape"
   xmlns:sodipodi="http://sodipodi.sourceforge.net/DTD/sodipodi-0.dtd"
   xmlns="http://www.w3.org/2000/svg"
   xmlns:svg="http://www.w3.org/2000/svg"
   xmlns:rdf="http://www.w3.org/1999/02/22-rdf-syntax-ns#"
   xmlns:cc="http://creativecommons.org/ns#"
   xmlns:dc="http://purl.org/dc/elements/1.1/"><sodipodi:namedview
     id="namedview70"
     pagecolor="#ffffff"
     bordercolor="#000000"
     borderopacity="0.25"
     inkscape:showpageshadow="2"
     inkscape:pageopacity="0.0"
     inkscape:pagecheckerboard="0"
     inkscape:deskcolor="#d1d1d1"
     showgrid="false"
     inkscape:zoom="0.40539929"
     inkscape:cx="411.93955"
     inkscape:cy="714.11077"
     inkscape:window-width="1920"
     inkscape:window-height="1016"
     inkscape:window-x="0"
     inkscape:window-y="0"
     inkscape:window-maximized="1"
     inkscape:current-layer="svg2" /><metadata
     id="metadata8"><rdf:RDF><cc:Work
         rdf:about=""><dc:format>image/svg+xml</dc:format><dc:type
           rdf:resource="http://purl.org/dc/dcmitype/StillImage" /></cc:Work></rdf:RDF></metadata><defs
     id="defs6"><clipPath
       id="clipPath34"
       clipPathUnits="userSpaceOnUse"><path
         id="path32"
         d="M 0,1400 H 1080 V 0 H 0 Z" /></clipPath></defs><g
     transform="matrix(1.3333333,0,0,-1.3333333,0,1866.6667)"
     id="g10"><g
   transform="translate(202.3992,501.5252)"
   id="g12"><path
     id="path14"
     style="fill:#d61c54;fill-opacity:1;fill-rule:nonzero;stroke:none"
     d="M 0,0 840.275,-462.428 H -165.034 l -0.039,360.722 z" /></g><g
   transform="translate(201.0477,468.4135)"
   id="g16"><path
     id="path18"
     style="fill:#ffffff;fill-opacity:1;fill-rule:nonzero;stroke:none"
     d="m 0,0 58.517,-111.209 v -281.5 l -186.359,-0.477 v 314.37 z" /></g><g
   transform="translate(877.6008,501.5252)"
   id="g20"><path
     id="path22"
     style="fill:#d61c54;fill-opacity:1;fill-rule:nonzero;stroke:none"
     d="M 0,0 -840.275,-462.428 H 165.034 l 0.039,360.722 z" /></g><g
   transform="translate(873.1771,456.3862)"
   id="g24"><path
     id="path26"
     style="fill:#ffffff;fill-opacity:1;fill-rule:nonzero;stroke:none"
     d="m 0,0 -698.512,-381.158 h 426.452 l 363.028,207.28 z" /></g><g
   id="g28"><g
     clip-path="url(#clipPath34)"
     id="g30"><g
       transform="translate(643.2864,849.4987)"
       id="g36"><path
         id="path38"
         style="fill:#d61c54;fill-opacity:1;fill-rule:nonzero;stroke:none"
         d="m 0,0 c -3.255,10.147 -6.401,20.148 -9.684,30.105 -1.57,4.763 -4.822,4.155 -8.438,2.41 -8.486,-4.095 -16.979,-8.179 -25.537,-12.12 -23.757,-10.938 -45.46,-4.284 -66.111,8.405 -8.072,4.96 -11.28,25.695 -5.506,33.298 1.816,2.392 5.13,4.579 8.053,5.057 15.637,9.856 102.335,40.301 120.722,43.286 6.697,1.088 11.747,1.461 15.656,-3.343 9.943,-12.223 20.946,-23.924 28.812,-37.415 11.929,-20.46 21.539,-42.27 32.157,-63.494 0.921,-1.841 2.53,-4.798 3.649,-6.525 6.494,-10.029 6.393,-17.145 -1.212,-27.299 -12.889,-17.212 -25.797,-34.427 -39.28,-51.173 -22.019,-27.349 -44.355,-54.448 -66.901,-81.365 -5.61,-6.697 -7.995,-13.594 -7.399,-22.261 2.647,-38.5 6.867,-260.165 6.867,-260.165 l -89.135,-49.028 -115.605,63.637 c 0,0 3.33,178.568 3.539,205.427 0.122,15.785 -4.701,29.808 -15.928,40.498 -23.751,22.616 -37.047,50.308 -42.685,82.333 -1.089,6.188 -2.97,12.193 -4.775,18.211 -1.888,6.298 -0.448,11.898 2.126,17.598 1.843,4.081 4.498,5.183 8.369,3.108 2.89,-1.55 5.796,-3.134 8.457,-5.036 11.604,-8.291 23.219,-16.573 34.624,-25.131 4.305,-3.231 10.277,-2.962 14.237,0.682 8.493,7.816 17.374,15.22 25.705,23.201 22.737,21.779 50.884,29.142 81.163,30.894 2.751,0.16 5.679,-0.613 8.342,-1.501 6.995,-2.333 8.835,-6.758 5.422,-13.216 -2.144,-4.059 -4.62,-7.978 -7.274,-11.728 -14.955,-21.132 -30.046,-42.168 -44.997,-63.304 -2.65,-3.747 -4.962,-7.75 -7.185,-11.77 -0.462,-0.834 -0.242,-2.791 0.396,-3.285 0.704,-0.545 2.668,-0.469 3.36,0.147 3.419,3.05 7.182,5.961 9.77,9.659 17.355,24.8 34.988,49.432 51.469,74.809 18.111,27.886 42.224,46.502 75.016,53.363 2.353,0.493 4.651,1.263 6.962,1.948 C -1.961,-0.84 -1.182,-0.466 0,0" /></g><g
       transform="translate(437.6685,929.399)"
       id="g40"><path
         id="path42"
         style="fill:#d61c54;fill-opacity:1;fill-rule:nonzero;stroke:none"
         d="m 0,0 c 10.763,-0.063 19.856,-4.323 26.475,-12.503 16.535,-20.438 33.024,-40.94 48.707,-62.029 10.381,-13.958 8.214,-24.034 -6.262,-33.821 -6.647,-4.494 -13.891,-8.884 -21.509,-10.973 -10.108,-2.773 -20.109,0.719 -26.713,8.771 -18.196,22.188 -35.893,44.801 -53.153,67.723 -2.608,3.463 -3.154,9.703 -2.376,14.271 C -32.111,-12.587 -16.093,0.064 0,0" /></g><g
       transform="translate(383.1615,874.8267)"
       id="g44"><path
         id="path46"
         style="fill:#d61c54;fill-opacity:1;fill-rule:nonzero;stroke:none"
         d="M 0,0 C 2.01,-1.018 6.349,-2.325 9.563,-4.988 31,-22.753 48.82,-43.723 63.325,-67.467 c 5.062,-8.288 4.089,-13.142 -3.168,-19.58 -2.622,-2.326 -5.313,-4.574 -7.898,-6.94 -8.017,-7.337 -8.086,-7.519 -17.514,-2.885 -27.228,13.382 -49.31,33.223 -68.707,56.127 -2.534,2.992 -3.557,8.721 -2.832,12.741 C -34.623,-15.967 -14.409,-0.201 0,0" /></g><g
       transform="translate(509.0213,899.7159)"
       id="g48"><path
         id="path50"
         style="fill:#d61c54;fill-opacity:1;fill-rule:nonzero;stroke:none"
         d="m 0,0 c -3.797,2.375 -7.521,3.548 -9.405,6.087 -7.258,9.782 -15.382,19.314 -20.521,30.196 -11.732,24.845 11.764,57.242 39.167,54.785 3.668,-0.329 7.941,-2.945 10.426,-5.809 C 28.701,74.845 37.199,63.958 45.692,53.087 50.943,46.365 50.272,43.106 42.289,39.501 34.541,36.003 26.511,32.992 18.373,30.529 8.808,27.633 3.699,21.776 2.831,11.804 2.518,8.204 1.163,4.695 0,0" /></g><g
       transform="translate(587.7014,951.049)"
       id="g52"><path
         id="path54"
         style="fill:#d61c54;fill-opacity:1;fill-rule:nonzero;stroke:none"
         d="m 0,0 c -10.032,-1.392 -17.712,2.948 -22.918,12.094 -2.385,4.192 -4.937,8.301 -7.094,12.607 -10.684,21.327 0.633,41.735 24.453,44.405 C 10.795,70.939 23.007,63.46 32.623,51.41 37.629,45.136 41.459,37.831 45.201,30.669 49.365,22.697 48.106,18.733 40.57,13.405 28.608,4.947 15.231,0.584 0,0" /></g><g
       transform="translate(532.9181,827.0166)"
       id="g56"><path
         id="path58"
         style="fill:#d61c54;fill-opacity:1;fill-rule:nonzero;stroke:none"
         d="m 0,0 c 1.903,2.804 3.818,4.93 4.931,7.414 2.163,4.828 4.704,9.722 5.539,14.841 0.812,4.983 3.024,7.296 7.548,7.027 C 30.023,28.569 41.04,24.822 50.921,17.869 41.58,1.094 20.436,-6.553 0,0" /></g><g
       transform="translate(259.5642,692.3762)"
       id="g60"><path
         id="path62"
         style="fill:#d61c54;fill-opacity:1;fill-rule:nonzero;stroke:none"
         d="m 0,0 -41.018,-14.008 -15.591,-42.601 -15.619,42.601 -40.99,14.008 40.99,15.479 15.619,41.13 15.591,-41.13 z" /></g><g
       transform="translate(936.915,692.3762)"
       id="g64"><path
         id="path66"
         style="fill:#d61c54;fill-opacity:1;fill-rule:nonzero;stroke:none"
         d="M 0,0 -43.214,-14.758 -59.64,-59.64 -76.095,-14.758 -119.28,0 -76.095,16.308 -59.64,59.64 -43.214,16.308 Z" /></g><g
       transform="translate(142.9611,966.9882)"
       id="g68"><path
         id="path70"
         style="fill:#d61c54;fill-opacity:1;fill-rule:nonzero;stroke:none"
         d="m 0,0 c -0.261,-64.667 -9.137,-135.872 -48.521,-178.938 -60.245,-65.877 -45.387,148.518 -45.499,163.285 8.388,5.857 17.093,8.652 26.038,11.293 -0.415,-34.353 -1.645,-109.734 9.154,-111.459 5.415,0.165 8.842,3.882 11.198,8.68 12.56,25.577 18.668,63.761 19.024,94.468 0.409,35.297 -9.652,68.038 -26.065,99.502 -24.474,46.918 -39.357,110.821 -37.902,163.553 0.863,31.278 -5.94,140.698 48.83,140.422 56.698,-0.285 48.057,-109.57 48.489,-142.176 -9.707,-2.937 -19.402,-5.854 -29.079,-8.69 0.279,18.596 3.635,95.243 -19.778,96.36 -10.213,0.487 -19.342,-26.48 -19.5,-76.948 C -62.258,155.335 4.986,131.225 0,0" /></g><g
       transform="translate(246.4347,1355.6833)"
       id="g72"><path
         id="path74"
         style="fill:#d61c54;fill-opacity:1;fill-rule:nonzero;stroke:none"
         d="m 0,0 c -0.271,-7.67 -0.542,-21.534 -0.813,-38.215 -11.071,-1.234 -22.134,-2.553 -33.191,-3.959 -1.704,-128.388 -8.434,-259.182 -9.167,-387.55 -9.81,-9.703 -19.613,-18.446 -29.381,-30.489 1.396,138.054 7.632,276.029 9.21,414.096 -11.045,-1.565 -22.081,-3.22 -33.11,-4.97 0.207,21.898 0.414,40.821 0.621,50.559 C -63.888,-0.321 -31.944,-0.146 0,0" /></g><g
       transform="translate(323.8858,1270.111)"
       id="g76"><path
         id="path78"
         style="fill:#d61c54;fill-opacity:1;fill-rule:nonzero;stroke:none"
         d="m 0,0 c 0.687,44.55 -5.31,54.267 -35.331,51.724 -2.551,-0.235 -5.1,-0.475 -7.649,-0.718 -0.699,-43.043 -1.154,-86.095 -2.236,-129.131 2.554,0.504 5.11,1.017 7.667,1.536 30.115,6.129 36.657,18.075 37.278,59.017 C -0.181,-11.791 -0.09,-5.9 0,0 m 24.27,-213.126 c -0.452,-18.631 -0.747,-33.362 -1.247,-39.01 -10.256,-4.749 -22.522,-9.635 -30.82,-14.2 0,0 0.847,14.109 1.375,32.348 0.879,30.397 1.738,60.795 2.614,91.192 1.743,60.283 -16.382,44.567 -34.48,37.251 -2.671,-1.078 -5.342,-2.206 -8.013,-3.385 -1.958,-63.679 -3.651,-119.421 -5.814,-183.093 -9.643,-5.974 -24.687,-16.656 -29.373,-19.504 4.756,132.361 6.275,264.751 9.911,397.126 12.25,0.056 24.502,0.108 36.754,0.156 C 21.754,87.466 31.822,58.226 29.544,5.297 29.462,-0.322 29.379,-5.959 29.296,-11.528 28.669,-54.24 21.652,-77.578 1.564,-84.674 c 16.765,-0.902 25.865,0.488 24.615,-49.974 -0.582,-23.429 -1.26,-51.779 -1.909,-78.478" /></g><g
       transform="translate(356.6602,1022.185)"
       id="g80"><path
         id="path82"
         style="fill:#d61c54;fill-opacity:1;fill-rule:nonzero;stroke:none"
         d="m 0,0 c 2.582,111.958 3.867,221.994 7.086,333.93 9.803,0.026 19.606,0.051 29.41,0.073 C 33.859,226.292 32.692,118.738 30.736,11.011 20.991,7.913 7.835,2.95 0,0" /></g><g
       transform="translate(485.2145,1356.3319)"
       id="g84"><path
         id="path86"
         style="fill:#d61c54;fill-opacity:1;fill-rule:nonzero;stroke:none"
         d="m 0,0 c 10.295,0.009 20.589,0.015 30.883,0.02 0,0 -34.815,-93.02 -49.798,-138.978 19.465,-55.522 37.468,-100.051 48.857,-160.397 -10.661,-0.479 -21.329,-1.698 -32.006,-2.861 -11.21,59.5 -27.411,104.979 -47.613,159.734 C -34.644,-95.405 0,0 0,0 m -82.485,-318.427 c 1.68,106.007 2.68,212.323 5.127,318.315 9.804,0.02 19.608,0.037 29.413,0.053 -2.011,-103.244 -2.722,-207.244 -3.914,-310.501 -10.198,-2.342 -20.08,-4.829 -30.626,-7.867" /></g><g
       transform="translate(599.9254,1355.9113)"
       id="g88"><path
         id="path90"
         style="fill:#d61c54;fill-opacity:1;fill-rule:nonzero;stroke:none"
         d="m 0,0 c 0.08,-5.21 0.16,-17.684 0.24,-28 -15.26,0.463 -30.523,0.767 -45.786,0.88 0.047,-31.305 0.082,-58.503 0.12,-89.808 15.425,-0.228 30.849,-0.947 46.266,-2.125 0.08,-12.553 0.16,-24.047 0.24,-33.281 -15.479,1.069 -30.968,1.734 -46.458,1.939 0.04,-23.537 0.072,-65.126 0.116,-114.589 15.651,-0.753 31.316,-2.225 46.981,-4.544 0.101,-19.819 0.208,-9.784 0.314,-32.268 -25.925,3.321 -51.792,4.227 -77.671,3.462 0.157,99.592 0.255,199.186 0.63,298.777 C -50.005,0.45 -25.003,0.355 0,0" /></g><g
       transform="translate(795.1389,1067.4612)"
       id="g92"><path
         id="path94"
         style="fill:#d61c54;fill-opacity:1;fill-rule:nonzero;stroke:none"
         d="m 0,0 36.256,285.126 c 0,0 29.079,-0.103 39.956,-0.16 C 48.23,162.044 48.209,34.354 17.034,-87.504 c -13.8,9.015 -29.256,17.166 -44.845,25.27 -2.102,95.449 -4.625,190.106 -6.127,285.566 -13.979,-89.258 -33.46,-173.624 -44.758,-263.656 -15.695,5.711 -31.663,10.425 -47.412,14.745 -1.216,104.724 -2.141,208.144 -4.408,312.851 9.805,-0.201 19.608,-0.406 29.412,-0.603 1.964,-77.5 2.765,-155.061 4.119,-232.575 11.13,75.254 25.221,158.487 45.288,231.693 15.293,-0.223 30.585,-0.387 45.876,-0.454 C -3.174,190.266 0,0 0,0" /></g><g
       transform="translate(951.5285,1351.9792)"
       id="g96"><path
         id="path98"
         style="fill:#d61c54;fill-opacity:1;fill-rule:nonzero;stroke:none"
         d="m 0,0 0.519,-46.735 -47.029,2.023 -6.974,-136.425 51.311,-13.582 -0.016,-53.102 -54.147,20.47 -4.377,-152.79 61.11,-51.397 c 0,0 -0.776,-45.3 -0.397,-71.487 -35.16,48.898 -77.526,85.202 -98.779,102.431 L -74.955,0.441 Z" /></g><g
       transform="translate(1037.3679,1351.3116)"
       id="g100"><path
         id="path102"
         style="fill:#d61c54;fill-opacity:1;fill-rule:nonzero;stroke:none"
         d="m 0,0 v -63.73 l -45.202,5.306 0.721,-155.038 L 0,-230.184 v -61.565 l -44.305,25.814 c 0,0 1.674,-231.062 2.258,-309.16 -7.135,13.473 -20.11,37.825 -29.803,52.362 -1.949,177.168 -0.931,346.137 -3.076,523.302 C -49.946,0.398 -24.971,0.209 0,0" /></g></g></g>
</g></svg>
